PathFileType	4	(X/Y/Z)	/Users/niels/Desktop/University/Third Semester/Perception and Action/Exam/Gymnastics Motion Tracking/Code for Gym Tracking/Analyzed Data/Webcam_Backflip/id8_3_baseline_Sports2D/id8_3_baseline_Sports2D_px_person00.trc
DataRate	CameraRate	NumFrames	NumMarkers	Units	OrigDataRate	OrigDataStartFrame	OrigNumFrames
29.8125	29.8125	11	22	m	29.8125	100	160
Frame#	Time	Hip			RHip			RKnee			RAnkle			RBigToe			RSmallToe			RHeel			LHip			LKnee			LAnkle			LBigToe			LSmallToe			LHeel			Neck			Head			Nose			RShoulder			RElbow			RWrist			LShoulder			LElbow			LWrist		
		X1	Y1	Z1	X2	Y2	Z2	X3	Y3	Z3	X4	Y4	Z4	X5	Y5	Z5	X6	Y6	Z6	X7	Y7	Z7	X8	Y8	Z8	X9	Y9	Z9	X10	Y10	Z10	X11	Y11	Z11	X12	Y12	Z12	X13	Y13	Z13	X14	Y14	Z14	X15	Y15	Z15	X16	Y16	Z16	X17	Y17	Z17	X18	Y18	Z18	X19	Y19	Z19	X20	Y20	Z20	X21	Y21	Z21	X22	Y22	Z22
100	3.354297693920335	0.9303720621896944	-0.6095586461701245	0.0	0.9338699983804399	-0.610004604020846	0.0	0.950510478743422	-0.706963438188585	0.0	0.9281336673310645	-0.8027578442549885	0.0	0.9512329912014277	-0.8227658439840931	0.0	0.9406213314395715	-0.824364858810383	0.0	0.9217911426622803	-0.8161506362850031	0.0	0.9277096278571977	-0.609136371779325	0.0	0.9488274606755551	-0.7046320625453645	0.0	0.9288097223469549	-0.7964105937353358	0.0	0.9609660416035195	-0.8142217780359222	0.0	0.9564077026084628	-0.8114253644752444	0.0	0.9175384516642244	-0.808669344555101	0.0	0.9356539786180835	-0.4754584843658883	0.0	0.9495718560357301	-0.41301395434702276	0.0	0.9613711072047982	-0.446323758259157	0.0	0.9298726035152851	-0.49537763022774367	0.0	0.9294830700494068	-0.5576320591026165	0.0	0.948495097063293	-0.6101658568305433	0.0	0.9257414775719893	-0.492036289105131	0.0	0.9243182120640094	-0.549305479712374	0.0	0.9436506820409554	-0.6049563306455297	0.0
101	3.3878406708595383	0.9310840314719451	-0.6365072805468426	0.0	0.9334060266635896	-0.6369893446261543	0.0	0.9536038264411019	-0.7307271984916022	0.0	0.925658986185979	-0.822565270409296	0.0	0.9486643858478441	-0.8413862831149054	0.0	0.9382054473286024	-0.8420994183336407	0.0	0.9194370705220174	-0.8345582601304568	0.0	0.9288765618855022	-0.6363154547021322	0.0	0.952310616183813	-0.7284323928722023	0.0	0.9272340051407945	-0.8177883816783598	0.0	0.9588624480123801	-0.8338947839855727	0.0	0.9539349034658339	-0.8311317540687853	0.0	0.9163586571929502	-0.8282888109019906	0.0	0.9361773189728534	-0.5019491958011035	0.0	0.9493642322147923	-0.4400848075744588	0.0	0.9631309726194256	-0.47186346852280636	0.0	0.9304793793645606	-0.5226133689373614	0.0	0.9272210263216146	-0.5869490061221784	0.0	0.9410489588701639	-0.6405977609448151	0.0	0.927307514117322	-0.5188743838319281	0.0	0.9232747999068383	-0.5776320990437797	0.0	0.9400420531687007	-0.63440785401269	0.0
102	3.421383647798742	0.9314921101001045	-0.6546795841278228	0.0	0.9328653319367569	-0.6550982373944769	0.0	0.9564097760981753	-0.7460946148219426	0.0	0.9237290447432382	-0.8346643832132694	0.0	0.947106425500908	-0.8530645292762902	0.0	0.9367193249919078	-0.8531252093718619	0.0	0.9174725032650352	-0.8454460212418925	0.0	0.9295959942210323	-0.6544838621347755	0.0	0.9550452265273214	-0.7437507326565721	0.0	0.925665419101533	-0.8310834129766792	0.0	0.957020292037164	-0.8462951412911882	0.0	0.9516258077123148	-0.8436255122337607	0.0	0.9150973397017119	-0.8401273051684643	0.0	0.9370035603902491	-0.5199388628283591	0.0	0.9500485946339833	-0.4586938122931938	0.0	0.9653842028089304	-0.48941799652985446	0.0	0.9312606715425131	-0.540888145144941	0.0	0.9251797824998897	-0.6061767658609614	0.0	0.9343237267226002	-0.6600651697055976	0.0	0.9288410331797697	-0.5368838156025898	0.0	0.9221343986295615	-0.5966809299845804	0.0	0.9369399921696371	-0.6534109931741813	0.0
103	3.454926624737945	0.9317713595884592	-0.6621543655677231	0.0	0.9326549362326856	-0.6624310435298635	0.0	0.9588017789332666	-0.7514619979536264	0.0	0.9225513493010227	-0.8381962986397135	0.0	0.9465852317729341	-0.8565978437932289	0.0	0.9363011740808611	-0.8564188669392504	0.0	0.9160943007953555	-0.8482931924920984	0.0	0.9299793456434956	-0.661778317875322	0.0	0.9569777472810441	-0.7490055903425025	0.0	0.9244269942945156	-0.8351707748577769	0.0	0.9558608736714999	-0.8503940708413608	0.0	0.9500631203701148	-0.8478930974914839	0.0	0.913880648294452	-0.8435057622020261	0.0	0.9380780419488854	-0.5274615766688733	0.0	0.9517313609734591	-0.4668233120834005	0.0	0.9677688033910196	-0.4969500068748281	0.0	0.9322680471881316	-0.5483424448861585	0.0	0.9232732821348059	-0.6137388770768722	0.0	0.9283555175127932	-0.6675903573412789	0.0	0.9301773001210859	-0.5441852870245254	0.0	0.9206008821456696	-0.6043975913711387	0.0	0.9336080697249352	-0.6604556566525729	0.0
104	3.4884696016771484	0.9318564990648757	-0.658508513141339	0.0	0.9327161858426749	-0.6586513812788591	0.0	0.9607299789271896	-0.7465101567317605	0.0	0.9221410338620826	-0.8331407699317289	0.0	0.9471963561701128	-0.8517582546934376	0.0	0.9372168030287734	-0.8517313571610695	0.0	0.9153233847506235	-0.8432039294755886	0.0	0.9298673088222011	-0.65788789974545	0.0	0.9582295878283751	-0.7439016752550708	0.0	0.923731056486169	-0.8299209202522922	0.0	0.9558046665922076	-0.8459609879392884	0.0	0.9498055606636724	-0.8436015907503814	0.0	0.9128078349947328	-0.8385121856140308	0.0	0.9393386203365679	-0.5240171244330727	0.0	0.9543698351093438	-0.4639210488519385	0.0	0.9700249185253168	-0.49380274978425526	0.0	0.9335410686313644	-0.5445991203589542	0.0	0.9216859227246157	-0.6096659761572154	0.0	0.9233650770309418	-0.6636888580940475	0.0	0.9312787332426932	-0.5404461460766384	0.0	0.9189954021647795	-0.6005829811259219	0.0	0.9298934379812871	-0.6555998041299721	0.0
105	3.522012578616352	0.9315627970125635	-0.6449772795925921	0.0	0.9327520216736458	-0.6450974339832771	0.0	0.9621146205680894	-0.7324398594165838	0.0	0.9224593141780534	-0.8204885651643081	0.0	0.9489962523583337	-0.8396715069175867	0.0	0.9395297460027621	-0.840023101091556	0.0	0.9151243770980843	-0.8310662940797671	0.0	0.929025148776463	-0.6441566314672552	0.0	0.9588639648027473	-0.7296879407975807	0.0	0.923659537458482	-0.8163889584439286	0.0	0.957003509731321	-0.8338696109630944	0.0	0.9510718319808685	-0.8315121259335222	0.0	0.9119942264249423	-0.8261528729968847	0.0	0.9407179030324467	-0.5107436971911387	0.0	0.9577191837287485	-0.45101809776596785	0.0	0.9719725883253464	-0.4809292255778229	0.0	0.9349935336973466	-0.5308824736797896	0.0	0.920708843258793	-0.5954959385499032	0.0	0.9197792580997982	-0.6502071321640733	0.0	0.9322304396121702	-0.5269968264450829	0.0	0.9180720651519343	-0.5869299326109456	0.0	0.9260568910600462	-0.6406156452852698	0.0
106	3.555555555555555	0.9307850772942773	-0.6240475333787318	0.0	0.9325599723766196	-0.6243235429725756	0.0	0.9628083341407236	-0.71166405504317	0.0	0.9235232170219534	-0.8020675953865372	0.0	0.9517793329276314	-0.8225798425698041	0.0	0.9428287144809834	-0.8233193643685252	0.0	0.9155571712495509	-0.8135115822919836	0.0	0.9273917719386889	-0.6231544075671643	0.0	0.95883114187342	-0.708852799347285	0.0	0.9242079550229064	-0.7966499652839375	0.0	0.9591410662890181	-0.8161040311976203	0.0	0.9535369899536524	-0.8135344153795687	0.0	0.9116243929452725	-0.8082635722854258	0.0	0.9421131175020513	-0.49006198708397797	0.0	0.9613718573911382	-0.43041870526344805	0.0	0.973474971325656	-0.4605797198315177	0.0	0.9364282214488144	-0.5096558218983613	0.0	0.9205251610405057	-0.5737497324989356	0.0	0.9179765696668687	-0.629615055184854	0.0	0.9331231417821495	-0.5063323721265702	0.0	0.9183636298523483	-0.5662035447675073	0.0	0.9225959852529336	-0.6183928279381838	0.0
107	3.5890985324947584	0.9295518452471622	-0.5986888852379846	0.0	0.9321197351037441	-0.5992900327258913	0.0	0.9626851739642412	-0.6871059150322075	0.0	0.9254107518119246	-0.7800922499519872	0.0	0.9550306051297889	-0.8030793778349588	0.0	0.9464183886543754	-0.8040458192056561	0.0	0.9168380284088167	-0.7925783338385198	0.0	0.9251388556722323	-0.597866001144042	0.0	0.9581272889339597	-0.6843241269798919	0.0	0.9253512372748365	-0.7732399051344915	0.0	0.9615477522877384	-0.7951986154271448	0.0	0.9564750909447345	-0.7921506724816751	0.0	0.911937512141148	-0.7870823190942945	0.0	0.943381256390689	-0.46496301645431243	0.0	0.9648703617013824	-0.4050506356747692	0.0	0.9744455836410587	-0.43562725639680994	0.0	0.9376573992505702	-0.48395313756228137	0.0	0.9211048086982725	-0.5473435083195693	0.0	0.9180531402200347	-0.6044356409812458	0.0	0.9339675459817884	-0.4813257725507839	0.0	0.9197558294523734	-0.5412839144656201	0.0	0.9202442761329411	-0.5921117210507704	0.0
108	3.622641509433962	0.92802841764291	-0.57167889825199	0.0	0.9315033227074724	-0.572691553152396	0.0	0.9617414803703321	-0.661499283052202	0.0	0.928149144618196	-0.7567367214617349	0.0	0.9581616519535431	-0.7833386373676963	0.0	0.9497082255708582	-0.7843169819152923	0.0	0.9191931504393828	-0.7702526942155525	0.0	0.9226639131900248	-0.5710133488559407	0.0	0.9568979889326441	-0.6587594590208717	0.0	0.9270630116547428	-0.7485596298191234	0.0	0.9636274212800796	-0.7733945282033429	0.0	0.959199391768328	-0.7695896830912985	0.0	0.9131117584135507	-0.7647124074070903	0.0	0.9443834613373683	-0.4383045075890822	0.0	0.967803785344979	-0.37779729718668786	0.0	0.9748991937512356	-0.40890115881986994	0.0	0.9385663400296228	-0.45670108393732584	0.0	0.9222172336287416	-0.5191346924117812	0.0	0.9197736409312254	-0.5771082897222344	0.0	0.9347595941228053	-0.45465610715330795	0.0	0.9217747473520435	-0.5147106605091498	0.0	0.9197312425286241	-0.5646574960393991	0.0
109	3.656184486373165	0.9265455883167051	-0.5452493938170696	0.0	0.9308286850442101	-0.5466674403311964	0.0	0.9601295369263172	-0.6369802755450505	0.0	0.9315837864410242	-0.733865413765888	0.0	0.9608946227410204	-0.7646691697671334	0.0	0.9524850034636071	-0.7655047618689167	0.0	0.9226044070227797	-0.7481566519043497	0.0	0.9205467162564758	-0.544773169550691	0.0	0.9553423612173576	-0.6342627855259328	0.0	0.9292778818050346	-0.7245718820675593	0.0	0.9652149830317651	-0.7522303949879142	0.0	0.9614296008062287	-0.7474578305721422	0.0	0.9151470657048741	-0.7427601841084055	0.0	0.945073908423299	-0.41236855749332274	0.0	0.9698880448127037	-0.3510930523635321	0.0	0.9749962567142936	-0.382769588426707	0.0	0.9391322023359766	-0.43025811355635396	0.0	0.9235322268296776	-0.49157216702762513	0.0	0.9226673981099868	-0.5499337920447548	0.0	0.9355649936723842	-0.428564729820944	0.0	0.9240554073022522	-0.48862096678282524	0.0	0.9213900508226991	-0.538314053573355	0.0
110	3.6897274633123684	0.9254961414864754	-0.5210172894167224	0.0	0.9302454790128738	-0.5227722602041164	0.0	0.9581128802792664	-0.6149871470059926	0.0	0.9353645097011726	-0.7129231937043627	0.0	0.9633943820779304	-0.7476113543543356	0.0	0.9549112786684397	-0.7482670944531639	0.0	0.9267029060342464	-0.7275539367326929	0.0	0.919340969737694	-0.5207325454317417	0.0	0.953602756304785	-0.6123086501240907	0.0	0.9318399401874434	-0.7028195529599346	0.0	0.9665094528599668	-0.7329037052760613	0.0	0.9632306279853551	-0.7270824928790177	0.0	0.9178493556396624	-0.7223885636281997	0.0	0.9455657834280785	-0.38873289622855944	0.0	0.9710369201213164	-0.326757005057433	0.0	0.9750044096241575	-0.35897153767123385	0.0	0.939433039152066	-0.40624457024135346	0.0	0.9247808681722104	-0.4664337758996381	0.0	0.9261952370867844	-0.5248419212230557	0.0	0.9364983057039724	-0.40474415725872187	0.0	0.9264968623767109	-0.4646738250600651	0.0	0.925098808079714	-0.5146120952279053	0.0
